<svg xmlns="http://www.w3.org/2000/svg" viewBox="0 0 1024 1024" width="1024" height="1024" preserveAspectRatio="xMidYMid meet" style="width: 100%; height: 100%; transform: translate3d(0px, 0px, 0px);"><defs><clipPath id="__lottie_element_12638"><rect width="1024" height="1024" x="0" y="0"></rect></clipPath><clipPath id="__lottie_element_12640"><path d="M0,0 L1024,0 L1024,1024 L0,1024z"></path></clipPath><radialGradient id="__lottie_element_12647" spreadMethod="pad" gradientUnits="userSpaceOnUse" cx="261.3940124511719" cy="-136.0189971923828" r="20.253283175282036" fx="261.3940124511719" fy="-136.0189971923828"><stop offset="16%" stop-color="rgb(234,136,0)"></stop><stop offset="70%" stop-color="rgb(202,114,8)"></stop><stop offset="100%" stop-color="rgb(171,92,16)"></stop></radialGradient><linearGradient id="__lottie_element_12648" spreadMethod="pad" gradientUnits="userSpaceOnUse" x1="251.5970001220703" y1="-147.90199279785156" x2="267.3580017089844" y2="-132.73899841308594"><stop offset="0%" stop-color="rgb(255,148,0)" stop-opacity="1"></stop><stop offset="32%" stop-color="rgb(245,142,0)" stop-opacity="0.5"></stop><stop offset="73%" stop-color="rgb(234,136,0)" stop-opacity="0"></stop></linearGradient><linearGradient id="__lottie_element_12654" spreadMethod="pad" gradientUnits="userSpaceOnUse" x1="224" y1="-104" x2="229.08599853515625" y2="-98.91400146484375"><stop offset="0%" stop-color="rgb(91,102,110)"></stop><stop offset="36%" stop-color="rgb(70,73,84)"></stop><stop offset="65%" stop-color="rgb(48,44,59)"></stop></linearGradient><linearGradient id="__lottie_element_12664" spreadMethod="pad" gradientUnits="userSpaceOnUse" x1="88.73300170898438" y1="-318.57598876953125" x2="92.63700103759766" y2="-314.6730041503906"><stop offset="0%" stop-color="rgb(255,255,255)"></stop><stop offset="100%" stop-color="rgb(0,0,0)"></stop></linearGradient><linearGradient id="__lottie_element_12671" spreadMethod="pad" gradientUnits="userSpaceOnUse" x1="270" y1="-147" x2="272.89599609375" y2="-144.10400390625"><stop offset="16%" stop-color="rgb(234,136,0)"></stop><stop offset="70%" stop-color="rgb(202,114,8)"></stop><stop offset="100%" stop-color="rgb(171,92,16)"></stop></linearGradient></defs><g clip-path="url(#__lottie_element_12638)"><g clip-path="url(#__lottie_element_12640)" transform="matrix(1,0,0,1,20,20)" opacity="1" style="display: block;"><g transform="matrix(11.992975234985352,-0.41054481267929077,0.41054481267929077,11.992975234985352,-2650.179443359375,2318.6005859375)" opacity="1" style="display: block;"><g opacity="1" transform="matrix(1,0,0,1,0,0)"><g opacity="1" transform="matrix(1,0,0,1,0,0)"><path fill="rgb(48,44,59)" fill-opacity="1" d=" M289.04998779296875,-173.13900756835938 C289.04998779296875,-173.13900756835938 292.322998046875,-169.86900329589844 292.322998046875,-169.86900329589844 C292.322998046875,-169.86900329589844 293.14898681640625,-170.69400024414062 293.14898681640625,-170.69400024414062 C293.14898681640625,-170.69400024414062 289.87799072265625,-173.9669952392578 289.87799072265625,-173.9669952392578 C289.87799072265625,-173.9669952392578 289.04998779296875,-173.13900756835938 289.04998779296875,-173.13900756835938z"></path></g></g><g opacity="1" transform="matrix(1,0,0,1,0,0)"><g opacity="1" transform="matrix(1,0,0,1,0,0)"><g opacity="1" transform="matrix(1,0,0,1,0,0)"><path fill="rgb(48,44,59)" fill-opacity="1" d=" M292.7200012207031,-168.28399658203125 C292.7200012207031,-168.28399658203125 295.47601318359375,-165.531005859375 295.47601318359375,-165.531005859375 C295.47601318359375,-165.531005859375 296.302001953125,-166.35699462890625 296.302001953125,-166.35699462890625 C296.302001953125,-166.35699462890625 293.5469970703125,-169.11199951171875 293.5469970703125,-169.11199951171875 C293.5469970703125,-169.11199951171875 292.7200012207031,-168.28399658203125 292.7200012207031,-168.28399658203125z"></path></g></g><g opacity="1" transform="matrix(1,0,0,1,0,0)"><g opacity="1" transform="matrix(1,0,0,1,0,0)"><path fill="rgb(48,44,59)" fill-opacity="1" d=" M294.0119934082031,-165.85400390625 C294.0119934082031,-165.85400390625 295.88800048828125,-164.9810028076172 295.88800048828125,-164.9810028076172 C295.88800048828125,-164.9810028076172 296.85198974609375,-165.94500732421875 296.85198974609375,-165.94500732421875 C296.85198974609375,-165.94500732421875 295.97900390625,-167.82000732421875 295.97900390625,-167.82000732421875 C295.97900390625,-167.82000732421875 294.0119934082031,-165.85400390625 294.0119934082031,-165.85400390625z"></path></g></g><g opacity="1" transform="matrix(1,0,0,1,0,0)"><g opacity="1" transform="matrix(1,0,0,1,0,0)"><path fill="rgb(48,44,59)" fill-opacity="1" d=" M291.8349914550781,-163.6199951171875 C291.8349914550781,-163.6199951171875 293.6830139160156,-162.7760009765625 293.6830139160156,-162.7760009765625 C293.6830139160156,-162.7760009765625 294.5780029296875,-163.6719970703125 294.5780029296875,-163.6719970703125 C294.5780029296875,-163.6719970703125 293.0950012207031,-164.8800048828125 293.0950012207031,-164.8800048828125 C293.0950012207031,-164.8800048828125 291.8349914550781,-163.6199951171875 291.8349914550781,-163.6199951171875z"></path></g></g></g><g opacity="1" transform="matrix(1,0,0,1,0,0)"><g opacity="1" transform="matrix(1,0,0,1,0,0)"><g opacity="1" transform="matrix(1,0,0,1,0,0)"><path fill="rgb(48,44,59)" fill-opacity="1" d=" M287.3269958496094,-170.7969970703125 C287.3269958496094,-170.7969970703125 290.60101318359375,-167.52499389648438 290.60101318359375,-167.52499389648438 C290.60101318359375,-167.52499389648438 291.42999267578125,-168.35400390625 291.42999267578125,-168.35400390625 C291.42999267578125,-168.35400390625 288.15399169921875,-171.625 288.15399169921875,-171.625 C288.15399169921875,-171.625 287.3269958496094,-170.7969970703125 287.3269958496094,-170.7969970703125z"></path></g></g><g opacity="1" transform="matrix(1,0,0,1,0,0)"><g opacity="1" transform="matrix(1,0,0,1,0,0)"><path fill="rgb(48,44,59)" fill-opacity="1" d=" M289.7699890136719,-171.14999389648438 C289.7699890136719,-171.14999389648438 287.9119873046875,-172.0019989013672 287.9119873046875,-172.0019989013672 C287.9119873046875,-172.0019989013672 286.95001220703125,-171.03900146484375 286.95001220703125,-171.03900146484375 C286.95001220703125,-171.03900146484375 287.8009948730469,-169.1840057373047 287.8009948730469,-169.1840057373047 C287.8009948730469,-169.1840057373047 289.7699890136719,-171.14999389648438 289.7699890136719,-171.14999389648438z"></path></g></g><g opacity="1" transform="matrix(1,0,0,1,0,0)"><g opacity="1" transform="matrix(1,0,0,1,0,0)"><path fill="rgb(48,44,59)" fill-opacity="1" d=" M291.802001953125,-173.18299865722656 C291.802001953125,-173.18299865722656 289.9440002441406,-174.03399658203125 289.9440002441406,-174.03399658203125 C289.9440002441406,-174.03399658203125 289.04998779296875,-173.13900756835938 289.04998779296875,-173.13900756835938 C289.04998779296875,-173.13900756835938 290.5400085449219,-171.92300415039062 290.5400085449219,-171.92300415039062 C290.5400085449219,-171.92300415039062 291.802001953125,-173.18299865722656 291.802001953125,-173.18299865722656z"></path></g></g></g><g opacity="1" transform="matrix(1,0,0,1,0,0)"><g opacity="1" transform="matrix(1,0,0,1,0,0)"><path fill="rgb(48,44,59)" fill-opacity="1" d=" M290.4859924316406,-166.10699462890625 C290.4859924316406,-166.10699462890625 293.75,-162.843994140625 293.75,-162.843994140625 C293.75,-162.843994140625 294.5780029296875,-163.6719970703125 294.5780029296875,-163.6719970703125 C294.5780029296875,-163.6719970703125 291.31201171875,-166.93600463867188 291.31201171875,-166.93600463867188 C291.31201171875,-166.93600463867188 290.4859924316406,-166.10699462890625 290.4859924316406,-166.10699462890625z"></path></g></g><g opacity="1" transform="matrix(1,0,0,1,0,0)"><g opacity="1" transform="matrix(1,0,0,1,0,0)"><path fill="rgb(171,92,16)" fill-opacity="1" d=" M293.0270080566406,-172.81199645996094 C293.0270080566406,-172.81199645996094 296.60198974609375,-169.23800659179688 296.60198974609375,-169.23800659179688 C296.60198974609375,-169.23800659179688 297.9530029296875,-171.19500732421875 297.9530029296875,-171.19500732421875 C297.9530029296875,-171.19500732421875 294.98199462890625,-174.16600036621094 294.98199462890625,-174.16600036621094 C294.98199462890625,-174.16600036621094 293.0270080566406,-172.81199645996094 293.0270080566406,-172.81199645996094z"></path></g></g><g opacity="1" transform="matrix(1,0,0,1,0,0)"><g opacity="1" transform="matrix(1,0,0,1,0,0)"><path fill="url(#__lottie_element_12671)" fill-opacity="1" d=" M288.51800537109375,-167.6269989013672 C288.51800537109375,-167.6269989013672 292.42498779296875,-170.52999877929688 292.42498779296875,-170.52999877929688 C292.42498779296875,-170.52999877929688 292.83599853515625,-171.6320037841797 292.83599853515625,-171.6320037841797 C292.83599853515625,-171.6320037841797 296.6600036621094,-174.16200256347656 296.6600036621094,-174.16200256347656 C296.6600036621094,-174.16200256347656 297.95098876953125,-172.875 297.95098876953125,-172.875 C297.95098876953125,-172.875 295.4200134277344,-169.05099487304688 295.4200134277344,-169.05099487304688 C295.4200134277344,-169.05099487304688 294.31500244140625,-168.63999938964844 294.31500244140625,-168.63999938964844 C294.31500244140625,-168.63999938964844 291.41400146484375,-164.73199462890625 291.41400146484375,-164.73199462890625 C291.41400146484375,-164.73199462890625 288.51800537109375,-167.6269989013672 288.51800537109375,-167.6269989013672z"></path></g></g><g opacity="1" transform="matrix(1,0,0,1,0,0)"><g opacity="1" transform="matrix(1,0,0,1,0,0)"><path fill="rgb(171,92,16)" fill-opacity="1" d=" M289.55999755859375,-167.7270050048828 C289.55999755859375,-167.7270050048828 294.989990234375,-172.22300720214844 294.989990234375,-172.22300720214844 C294.989990234375,-172.22300720214844 296.00799560546875,-171.20599365234375 296.00799560546875,-171.20599365234375 C296.00799560546875,-171.20599365234375 291.5119934082031,-165.7790069580078 291.5119934082031,-165.7790069580078 C291.5119934082031,-165.7790069580078 289.55999755859375,-167.7270050048828 289.55999755859375,-167.7270050048828z"></path></g></g></g><g transform="matrix(11.992975234985352,-0.41054481267929077,0.41054481267929077,11.992975234985352,-2650.179443359375,2318.6005859375)" opacity="1" style="display: block;"><g opacity="1" transform="matrix(1,0,0,1,0,0)"><g opacity="1" transform="matrix(1,0,0,1,0,0)"><g opacity="1" transform="matrix(1,0,0,1,0,0)"><path fill="url(#__lottie_element_12647)" fill-opacity="1" d=" M243.5989990234375,-138.89599609375 C246.42599487304688,-139.16900634765625 247.24400329589844,-140.5449981689453 247.37399291992188,-141.45700073242188 C247.843994140625,-144.73599243164062 248.9290008544922,-144.0469970703125 249.27000427246094,-143.35000610351562 C251.13299560546875,-139.5449981689453 255.14500427246094,-142.58999633789062 256.02301025390625,-143.24400329589844 C259.17999267578125,-145.6009979248047 257.0140075683594,-149.5780029296875 257.0140075683594,-149.5780029296875 C261.656005859375,-149.25 261.4150085449219,-153.10800170898438 262.49798583984375,-155.0590057373047 C267.4209899902344,-163.9320068359375 274.77099609375,-156.35000610351562 277.4169921875,-153.70199584960938 C280.0660095214844,-151.05499267578125 287.6520080566406,-143.71099853515625 278.7749938964844,-138.7899932861328 C276.8280029296875,-137.70700073242188 272.96099853515625,-137.94400024414062 273.2929992675781,-133.30499267578125 C273.2929992675781,-133.30499267578125 269.31500244140625,-135.47000122070312 266.9570007324219,-132.3159942626953 C266.3009948730469,-131.43899536132812 263.2569885253906,-127.42900085449219 267.0639953613281,-125.56600189208984 C267.7569885253906,-125.2239990234375 268.4460144042969,-124.14299774169922 265.1669921875,-123.6719970703125 C264.2550048828125,-123.53900146484375 262.79901123046875,-122.74400329589844 262.60699462890625,-119.89800262451172 C262.14801025390625,-113.0770034790039 252.74400329589844,-111.39900207519531 243.9199981689453,-120.21700286865234 C234.99400329589844,-129.14300537109375 237.09100341796875,-138.2689971923828 243.5989990234375,-138.89599609375z"></path></g></g></g><g opacity="1" transform="matrix(1,0,0,1,0,0)"><path fill="url(#__lottie_element_12648)" fill-opacity="1" d=" M263.2179870605469,-154.23500061035156 C262.156005859375,-152.4409942626953 262.68701171875,-148.57200622558594 258.5610046386719,-148.63699340820312 C258.5610046386719,-148.63699340820312 259.9179992675781,-144.4459991455078 256.9840087890625,-142.18800354003906 C256.1679992675781,-141.55999755859375 250.91400146484375,-137.822998046875 249.43800354003906,-141.12600708007812 C249.16799926757812,-141.73199462890625 248.23300170898438,-142.29400634765625 247.6540069580078,-139.34500122070312 C247.49200439453125,-138.52499389648438 245.94000244140625,-138.01100158691406 243.40499877929688,-137.6269989013672 C237.56399536132812,-136.7480010986328 237.53599548339844,-128.55499267578125 245.0500030517578,-121.04100036621094 C250.49000549316406,-115.60099792480469 285,-144.16600036621094 276.5929870605469,-152.572998046875 C274.447998046875,-154.71800231933594 268.04901123046875,-162.39599609375 263.2179870605469,-154.23500061035156z"></path></g></g><g transform="matrix(11.992975234985352,-0.41054481267929077,0.41054481267929077,11.992975234985352,-2650.179443359375,2318.6005859375)" opacity="1" style="display: block;"><g opacity="1" transform="matrix(1,0,0,1,0,0)"><g opacity="1" transform="matrix(1,0,0,1,0,0)"><path fill="rgb(48,44,59)" fill-opacity="1" d=" M264.69000244140625,-136.3769989013672 C265.0190124511719,-136.49200439453125 265.5140075683594,-136.57400512695312 265.8680114746094,-136.218994140625 C268.5419921875,-133.5469970703125 259.60198974609375,-129.1739959716797 261.3699951171875,-127.40599822998047 C261.760009765625,-127.01699829101562 262.1029968261719,-127.12000274658203 262.2909851074219,-127.22699737548828 C262.2619934082031,-127.447998046875 262.3179931640625,-127.67400360107422 262.48699951171875,-127.84200286865234 C262.7770080566406,-128.13099670410156 263.239990234375,-128.12899780273438 263.5260009765625,-127.84200286865234 C263.8139953613281,-127.55500030517578 263.8160095214844,-127.08999633789062 263.5270080566406,-126.8030014038086 C263.28399658203125,-126.55899810791016 262.9119873046875,-126.53500366210938 262.6289978027344,-126.70899963378906 C262.3190002441406,-126.49600219726562 261.52301025390625,-126.08599853515625 260.7850036621094,-126.8239974975586 C258.260009765625,-129.34500122070312 266.927001953125,-134.06300354003906 265.32000732421875,-135.67100524902344 C265.21600341796875,-135.77200317382812 265.06298828125,-135.78399658203125 264.92999267578125,-135.76600646972656 C264.9150085449219,-135.60299682617188 264.85198974609375,-135.43699645996094 264.72698974609375,-135.31199645996094 C264.43701171875,-135.0229949951172 263.9729919433594,-135.02499389648438 263.6860046386719,-135.31199645996094 C263.39801025390625,-135.5970001220703 263.39801025390625,-136.06500244140625 263.6860046386719,-136.3520050048828 C263.96099853515625,-136.6300048828125 264.4010009765625,-136.63299560546875 264.69000244140625,-136.3769989013672z"></path></g></g><g opacity="1" transform="matrix(1,0,0,1,0,0)"><g opacity="1" transform="matrix(1,0,0,1,0,0)"><path fill="rgb(48,44,59)" fill-opacity="1" d=" M260.14801025390625,-140.91600036621094 C260.2619934082031,-141.24400329589844 260.3429870605469,-141.74099731445312 259.9880065917969,-142.0959930419922 C257.3160095214844,-144.76800537109375 252.9409942626953,-135.83200073242188 251.17300415039062,-137.60000610351562 C250.7830047607422,-137.98899841308594 250.88499450683594,-138.33200073242188 250.9929962158203,-138.52000427246094 C251.21299743652344,-138.4929962158203 251.4409942626953,-138.5469970703125 251.60899353027344,-138.71499633789062 C251.89599609375,-139.0019989013672 251.89500427246094,-139.4669952392578 251.60899353027344,-139.75399780273438 C251.3209991455078,-140.04299926757812 250.85400390625,-140.04299926757812 250.5679931640625,-139.75399780273438 C250.322998046875,-139.50799560546875 250.2989959716797,-139.13999938964844 250.47500610351562,-138.85699462890625 C250.26100158691406,-138.54600524902344 249.8520050048828,-137.7519989013672 250.58799743652344,-137.01600646972656 C253.11199951171875,-134.4929962158203 257.8320007324219,-143.1540069580078 259.44000244140625,-141.5469970703125 C259.5429992675781,-141.4429931640625 259.5530090332031,-141.28900146484375 259.5369873046875,-141.15699768066406 C259.3710021972656,-141.13999938964844 259.2090148925781,-141.0800018310547 259.0830078125,-140.9550018310547 C258.79400634765625,-140.66600036621094 258.79400634765625,-140.2010040283203 259.0820007324219,-139.91400146484375 C259.3689880371094,-139.6269989013672 259.8340148925781,-139.625 260.12298583984375,-139.91400146484375 C260.39801025390625,-140.1909942626953 260.4020080566406,-140.6269989013672 260.14801025390625,-140.91600036621094z"></path></g></g></g><g transform="matrix(11.992975234985352,-0.41054481267929077,0.41054481267929077,11.992975234985352,-2650.179443359375,2318.6005859375)" opacity="1" style="display: block;"><g opacity="1" transform="matrix(1,0,0,1,0,0)"><path fill="url(#__lottie_element_12664)" fill-opacity="1" d=" M262.5880126953125,-142.718994140625 C262.5880126953125,-142.718994140625 266.4939880371094,-138.8179931640625 266.4939880371094,-138.8179931640625 C266.4939880371094,-138.8179931640625 291.5119934082031,-165.7790069580078 291.5119934082031,-165.7790069580078 C291.5119934082031,-165.7790069580078 289.55999755859375,-167.7270050048828 289.55999755859375,-167.7270050048828 C289.55999755859375,-167.7270050048828 262.5880126953125,-142.718994140625 262.5880126953125,-142.718994140625z"></path></g></g><g transform="matrix(11.992975234985352,-0.41054481267929077,0.41054481267929077,11.992975234985352,-2650.179443359375,2318.6005859375)" opacity="1" style="display: block;"><g opacity="1" transform="matrix(1,0,0,1,0,0)"><path fill="rgb(48,44,59)" fill-opacity="1" d=" M260.0350036621094,-130.80299377441406 C260.0350036621094,-130.80299377441406 254.3780059814453,-136.45899963378906 254.3780059814453,-136.45899963378906 C254.3780059814453,-136.45899963378906 255.0850067138672,-137.16600036621094 255.0850067138672,-137.16600036621094 C255.0850067138672,-137.16600036621094 260.74200439453125,-131.50999450683594 260.74200439453125,-131.50999450683594 C260.74200439453125,-131.50999450683594 260.0350036621094,-130.80299377441406 260.0350036621094,-130.80299377441406z"></path></g></g><g transform="matrix(11.992975234985352,-0.41054481267929077,0.41054481267929077,11.992975234985352,-2650.179443359375,2318.6005859375)" opacity="1" style="display: block;"><g opacity="1" transform="matrix(1,0,0,1,0,0)"><path fill="rgb(214,165,124)" fill-opacity="1" d=" M256.2430114746094,-129.00999450683594 C256.2430114746094,-129.00999450683594 255.91400146484375,-129.38699340820312 255.91400146484375,-129.38699340820312 C255.91400146484375,-129.38699340820312 259.635009765625,-132.64100646972656 259.635009765625,-132.64100646972656 C259.635009765625,-132.64100646972656 294.3919982910156,-169.97000122070312 294.3919982910156,-169.97000122070312 C294.3919982910156,-169.97000122070312 294.62799072265625,-169.73300170898438 294.62799072265625,-169.73300170898438 C294.62799072265625,-169.73300170898438 259.98199462890625,-132.281005859375 259.98199462890625,-132.281005859375 C259.98199462890625,-132.281005859375 256.2430114746094,-129.00999450683594 256.2430114746094,-129.00999450683594z"></path></g><g opacity="1" transform="matrix(1,0,0,1,0,0)"><path fill="rgb(214,165,124)" fill-opacity="1" d=" M252.7790069580078,-132.47300720214844 C252.7790069580078,-132.47300720214844 256.0350036621094,-136.1909942626953 256.0350036621094,-136.1909942626953 C256.0350036621094,-136.1909942626953 293.5119934082031,-170.8489990234375 293.5119934082031,-170.8489990234375 C293.5119934082031,-170.8489990234375 293.7489929199219,-170.61099243164062 293.7489929199219,-170.61099243164062 C293.7489929199219,-170.61099243164062 256.39599609375,-135.843994140625 256.39599609375,-135.843994140625 C256.39599609375,-135.843994140625 253.156005859375,-132.14300537109375 253.156005859375,-132.14300537109375 C253.156005859375,-132.14300537109375 252.7790069580078,-132.47300720214844 252.7790069580078,-132.47300720214844z"></path></g><g opacity="1" transform="matrix(1,0,0,1,0,0)"><path fill="rgb(214,165,124)" fill-opacity="1" d=" M253.82400512695312,-131.41799926757812 C253.82400512695312,-131.41799926757812 256.6499938964844,-134.85899353027344 256.6499938964844,-134.85899353027344 C256.6499938964844,-134.85899353027344 293.8190002441406,-170.54100036621094 293.8190002441406,-170.54100036621094 C293.8190002441406,-170.54100036621094 294.0580139160156,-170.3040008544922 294.0580139160156,-170.3040008544922 C294.0580139160156,-170.3040008544922 257.0169982910156,-134.52099609375 257.0169982910156,-134.52099609375 C257.0169982910156,-134.52099609375 254.21099853515625,-131.10000610351562 254.21099853515625,-131.10000610351562 C254.21099853515625,-131.10000610351562 253.82400512695312,-131.41799926757812 253.82400512695312,-131.41799926757812z"></path></g><g opacity="1" transform="matrix(1,0,0,1,0,0)"><path fill="rgb(214,165,124)" fill-opacity="1" d=" M255.18800354003906,-130.05499267578125 C255.18800354003906,-130.05499267578125 254.86900329589844,-130.4409942626953 254.86900329589844,-130.4409942626953 C254.86900329589844,-130.4409942626953 258.31201171875,-133.26600646972656 258.31201171875,-133.26600646972656 C258.31201171875,-133.26600646972656 294.0840148925781,-170.27699279785156 294.0840148925781,-170.27699279785156 C294.0840148925781,-170.27699279785156 294.3190002441406,-170.04100036621094 294.3190002441406,-170.04100036621094 C294.3190002441406,-170.04100036621094 258.6520080566406,-132.8979949951172 258.6520080566406,-132.8979949951172 C258.6520080566406,-132.8979949951172 255.18800354003906,-130.05499267578125 255.18800354003906,-130.05499267578125z"></path></g></g><g transform="matrix(11.992975234985352,-0.41054481267929077,0.41054481267929077,11.992975234985352,-2650.179443359375,2318.6005859375)" opacity="1" style="display: block;"><g opacity="1" transform="matrix(1,0,0,1,0,0)"><path fill="url(#__lottie_element_12654)" fill-opacity="1" d=" M257.0660095214844,-128.21099853515625 C257.0660095214844,-128.21099853515625 254.96400451660156,-126.95500183105469 254.20399475097656,-126.66999816894531 C253.52099609375,-126.41200256347656 252,-126.37200164794922 251.36099243164062,-126.0199966430664 C249.31199645996094,-124.88700103759766 244.73800659179688,-119.4000015258789 244.73800659179688,-119.4000015258789 C244.73800659179688,-119.4000015258789 243.16200256347656,-120.9749984741211 243.16200256347656,-120.9749984741211 C243.16200256347656,-120.9749984741211 248.64999389648438,-125.5469970703125 249.7830047607422,-127.59400177001953 C250.13699340820312,-128.23300170898438 250.17799377441406,-129.75399780273438 250.43600463867188,-130.43600463867188 C250.7209930419922,-131.197998046875 251.97999572753906,-133.2969970703125 251.97999572753906,-133.2969970703125 C251.97999572753906,-133.2969970703125 257.0660095214844,-128.21099853515625 257.0660095214844,-128.21099853515625z"></path></g></g><g transform="matrix(11.993183135986328,-0.40443798899650574,0.40443798899650574,11.993183135986328,-2596.62353515625,2371.00390625)" opacity="1" style="display: block;"><g opacity="1" transform="matrix(1,0,0,1,0,0)"><g opacity="1" transform="matrix(1,0,0,1,0,0)"><path fill="rgb(255,225,189)" fill-opacity="1" d=" M239.43600463867188,-162.1219940185547 C239.43600463867188,-162.1219940185547 285.9230041503906,-115.62100219726562 285.9230041503906,-115.62100219726562 C285.9230041503906,-115.62100219726562 286.97601318359375,-116.67400360107422 286.97601318359375,-116.67400360107422 C286.97601318359375,-116.67400360107422 240.48699951171875,-163.17300415039062 240.48699951171875,-163.17300415039062 C240.48699951171875,-163.17300415039062 239.43600463867188,-162.1219940185547 239.43600463867188,-162.1219940185547z"></path></g></g><g opacity="1" transform="matrix(1,0,0,1,0,0)"><g opacity="1" transform="matrix(1,0,0,1,0,0)"><path fill="rgb(153,168,174)" fill-opacity="1" d=" M239.43600463867188,-162.1219940185547 C239.43600463867188,-162.1219940185547 243.7740020751953,-157.7830047607422 243.7740020751953,-157.7830047607422 C243.7740020751953,-157.7830047607422 244.8249969482422,-158.83399963378906 244.8249969482422,-158.83399963378906 C244.8249969482422,-158.83399963378906 240.48699951171875,-163.17300415039062 240.48699951171875,-163.17300415039062 C240.48699951171875,-163.17300415039062 239.43600463867188,-162.1219940185547 239.43600463867188,-162.1219940185547z"></path></g></g><g opacity="1" transform="matrix(1,0,0,1,0,0)"><g opacity="1" transform="matrix(1,0,0,1,0,0)"><path fill="rgb(171,92,16)" fill-opacity="1" d=" M241.90199279785156,-164.58700561523438 C241.90199279785156,-164.58700561523438 279.9909973144531,-126.4990005493164 279.9909973144531,-126.4990005493164 C279.9909973144531,-126.4990005493164 281.0459899902344,-127.55400085449219 281.0459899902344,-127.55400085449219 C281.0459899902344,-127.55400085449219 242.9550018310547,-165.6439971923828 242.9550018310547,-165.6439971923828 C242.9550018310547,-165.6439971923828 241.90199279785156,-164.58700561523438 241.90199279785156,-164.58700561523438z"></path></g></g><g opacity="1" transform="matrix(1,0,0,1,0,0)"><g opacity="1" transform="matrix(1,0,0,1,0,0)"><path fill="rgb(48,44,59)" fill-opacity="1" d=" M284.0350036621094,-122.45500183105469 C284.0350036621094,-122.45500183105469 287.364990234375,-119.11199951171875 287.364990234375,-119.11199951171875 C287.364990234375,-119.11199951171875 288.4259948730469,-120.1729965209961 288.4259948730469,-120.1729965209961 C288.4259948730469,-120.1729965209961 285.0889892578125,-123.51000213623047 285.0889892578125,-123.51000213623047 C285.0889892578125,-123.51000213623047 284.0350036621094,-122.45500183105469 284.0350036621094,-122.45500183105469z"></path></g></g><g opacity="1" transform="matrix(1,0,0,1,0,0)"><g opacity="1" transform="matrix(1,0,0,1,0,0)"><path fill="rgb(171,92,16)" fill-opacity="1" d=" M287.5740051269531,-118.9229965209961 C287.5740051269531,-118.9229965209961 289.85400390625,-116.62999725341797 289.85400390625,-116.62999725341797 C289.85400390625,-116.62999725341797 290.9119873046875,-117.68599700927734 290.9119873046875,-117.68599700927734 C290.9119873046875,-117.68599700927734 288.625,-119.9739990234375 288.625,-119.9739990234375 C288.625,-119.9739990234375 287.5740051269531,-118.9229965209961 287.5740051269531,-118.9229965209961z"></path></g></g><g opacity="1" transform="matrix(1,0,0,1,0,0)"><g opacity="1" transform="matrix(1,0,0,1,0,0)"><path fill="rgb(153,168,174)" fill-opacity="1" d=" M279.9909973144531,-126.4990005493164 C279.9909973144531,-126.4990005493164 284.02801513671875,-122.4489974975586 284.02801513671875,-122.4489974975586 C284.02801513671875,-122.4489974975586 285.0889892578125,-123.51000213623047 285.0889892578125,-123.51000213623047 C285.0889892578125,-123.51000213623047 281.0459899902344,-127.55400085449219 281.0459899902344,-127.55400085449219 C281.0459899902344,-127.55400085449219 279.9909973144531,-126.4990005493164 279.9909973144531,-126.4990005493164z"></path></g></g><g opacity="1" transform="matrix(1,0,0,1,0,0)"><g opacity="1" transform="matrix(1,0,0,1,0,0)"><path fill="rgb(48,44,59)" fill-opacity="1" d=" M283.8680114746094,-117.677001953125 C283.8680114746094,-117.677001953125 287.385986328125,-114.16000366210938 287.385986328125,-114.16000366210938 C287.385986328125,-114.16000366210938 289.45001220703125,-119.14800262451172 289.45001220703125,-119.14800262451172 C289.45001220703125,-119.14800262451172 287.39599609375,-121.2040023803711 287.39599609375,-121.2040023803711 C287.39599609375,-121.2040023803711 283.8680114746094,-117.677001953125 283.8680114746094,-117.677001953125z"></path></g></g><g opacity="1" transform="matrix(1,0,0,1,0,0)"><g opacity="1" transform="matrix(1,0,0,1,0,0)"><path fill="rgb(171,92,16)" fill-opacity="1" d=" M241.49099731445312,-160.06500244140625 C241.49099731445312,-160.06500244140625 237.97500610351562,-163.58299255371094 237.97500610351562,-163.58299255371094 C237.97500610351562,-163.58299255371094 242.9550018310547,-165.6439971923828 242.9550018310547,-165.6439971923828 C242.9550018310547,-165.6439971923828 245.01100158691406,-163.58799743652344 245.01100158691406,-163.58799743652344 C245.01100158691406,-163.58799743652344 241.49099731445312,-160.06500244140625 241.49099731445312,-160.06500244140625z"></path></g></g></g></g></g></svg>